<?xml version="1.0" standalone="no"?>
<!DOCTYPE svg PUBLIC "-//W3C//DTD SVG 20010904//EN"
 "http://www.w3.org/TR/2001/REC-SVG-20010904/DTD/svg10.dtd">
<svg version="1.0" xmlns="http://www.w3.org/2000/svg"
 width="256.000000pt" height="256.000000pt" viewBox="0 0 256.000000 256.000000"
 preserveAspectRatio="xMidYMid meet">
<metadata>
Created by potrace 1.11, written by Peter Selinger 2001-2013
</metadata>
<g transform="translate(0.000000,256.000000) scale(0.100000,-0.100000)"
fill="#000000" stroke="none">
<path d="M1088 2443 c-21 -2 -38 -9 -38 -15 0 -5 -6 -8 -14 -5 -14 6 -159 -33
-195 -53 -12 -6 -21 -7 -21 -3 0 4 -4 3 -8 -2 -4 -6 -32 -21 -62 -35 -30 -14
-56 -28 -58 -32 -2 -5 -8 -8 -13 -8 -10 0 -120 -73 -154 -102 -48 -42 -142
-137 -165 -167 -14 -19 -33 -42 -42 -52 -10 -11 -18 -22 -18 -25 0 -3 -9 -19
-21 -35 -46 -64 -111 -205 -135 -289 -2 -8 -11 -40 -19 -70 -8 -30 -15 -64
-15 -77 0 -12 -4 -24 -8 -27 -5 -3 -7 -28 -5 -56 2 -29 0 -57 -4 -63 -10 -13
-10 -67 0 -137 4 -25 12 -84 18 -133 7 -48 16 -87 20 -87 4 0 6 -9 4 -20 -2
-11 1 -20 6 -20 5 0 9 -6 8 -13 -1 -6 3 -25 9 -40 7 -16 12 -32 12 -37 0 -5 9
-24 19 -42 11 -17 18 -35 15 -40 -3 -4 -1 -8 3 -8 5 0 15 -16 22 -35 7 -19 17
-35 23 -35 6 0 9 -3 5 -6 -3 -4 5 -21 18 -39 14 -17 25 -37 25 -42 0 -6 7 -13
15 -17 8 -3 15 -10 15 -16 0 -18 137 -162 200 -210 18 -14 41 -33 52 -43 10
-9 20 -17 23 -17 3 0 22 -11 43 -24 20 -12 41 -23 46 -24 5 0 12 -4 15 -9 6
-7 93 -52 116 -60 6 -1 42 -13 80 -27 39 -13 73 -22 78 -19 4 2 7 0 7 -5 0 -5
10 -8 23 -8 12 1 28 -3 36 -8 19 -15 449 -15 459 0 4 5 16 11 27 11 22 1 24 2
110 28 33 9 69 22 80 28 11 6 22 11 25 12 8 0 124 58 135 67 6 5 37 26 70 48
52 34 264 230 257 238 -1 1 16 27 38 57 22 30 40 56 40 59 0 3 13 26 29 52 17
25 33 59 36 75 4 16 11 29 16 29 5 0 8 3 7 8 -1 4 7 36 19 72 34 107 47 153
51 190 11 89 5 402 -8 418 -2 1 -3 10 -5 20 -1 9 -4 24 -7 32 -6 16 -41 130
-44 143 -1 4 -3 10 -4 15 -1 4 -2 10 -1 15 0 4 -3 7 -8 7 -5 0 -12 13 -16 29
-3 16 -19 50 -36 75 -16 26 -29 51 -29 56 0 5 -8 14 -17 19 -10 6 -13 11 -8
11 7 0 7 3 0 8 -6 4 -23 27 -40 51 -41 60 -164 182 -243 241 -37 27 -73 54
-79 60 -7 6 -13 8 -13 5 0 -4 -13 3 -28 14 -31 21 -183 91 -200 91 -6 0 -23 5
-39 11 -28 12 -50 17 -89 23 -11 1 -27 6 -34 11 -16 10 -348 16 -412 8z m401
-69 c6 -8 27 -13 79 -17 12 -1 22 -5 22 -8 0 -3 25 -12 55 -19 30 -7 55 -17
55 -22 0 -4 3 -7 8 -6 10 2 105 -45 114 -57 4 -5 8 -7 8 -2 0 4 23 -9 50 -28
28 -19 50 -33 50 -30 0 6 26 -17 133 -118 48 -46 87 -88 87 -94 0 -6 4 -13 8
-15 13 -5 92 -120 92 -134 0 -7 4 -14 8 -16 7 -3 62 -111 67 -133 1 -5 7 -21
12 -35 6 -14 14 -41 18 -60 4 -19 10 -39 13 -44 3 -6 7 -21 9 -35 2 -15 5 -44
8 -66 9 -64 15 -279 8 -295 -4 -8 -8 -28 -9 -45 -6 -59 -40 -193 -54 -210 -5
-5 -8 -13 -7 -16 3 -9 -47 -114 -56 -117 -4 -2 -5 -8 -1 -13 3 -5 0 -9 -5 -9
-6 0 -11 -6 -11 -13 0 -27 -107 -165 -189 -245 -91 -86 -124 -116 -131 -118
-3 0 -25 -13 -50 -29 -56 -36 -162 -89 -172 -87 -5 1 -8 -2 -8 -6 0 -5 -25
-15 -55 -22 -31 -7 -58 -17 -61 -22 -3 -5 -10 -6 -15 -3 -5 4 -15 3 -21 -2 -7
-4 -22 -9 -33 -10 -11 -2 -38 -6 -60 -10 -71 -13 -376 -8 -400 6 -5 3 -19 7
-30 8 -69 10 -294 98 -315 123 -3 3 -26 18 -52 33 -27 15 -48 32 -48 37 0 6
-6 10 -12 10 -16 0 -136 115 -199 190 -49 58 -74 96 -111 170 -13 25 -26 47
-29 50 -8 6 -61 149 -63 170 -1 9 -5 20 -8 25 -3 6 -12 46 -18 90 -18 113 -15
324 4 415 17 78 23 103 26 108 2 1 3 5 5 10 1 4 4 14 7 22 4 8 14 39 24 68 10
28 21 52 25 52 4 0 9 10 13 23 3 13 16 40 30 59 13 20 22 39 19 42 -3 3 2 8
11 12 9 3 16 11 16 16 0 23 148 183 235 253 79 64 256 161 269 147 3 -3 6 -1
6 5 0 10 108 45 121 40 3 -1 12 3 20 9 8 6 24 10 37 9 12 -1 22 2 22 7 0 5 16
8 35 6 19 -1 38 2 42 6 11 11 343 1 352 -10z"/>
<path d="M508 1948 c-2 -6 5 -69 14 -142 10 -72 19 -142 19 -156 1 -14 4 -29
7 -35 4 -5 8 -26 9 -45 1 -19 5 -48 7 -65 3 -16 12 -76 19 -132 13 -100 9
-174 -19 -338 -6 -41 -12 -81 -19 -135 -3 -25 -13 -103 -24 -175 -10 -71 -16
-132 -14 -135 9 -11 118 -8 125 3 4 6 10 41 13 77 8 77 13 100 25 100 5 0 7
-18 5 -40 -2 -22 1 -43 6 -46 5 -3 9 -22 9 -43 0 -21 6 -44 14 -50 11 -9 20 2
46 56 17 38 31 70 30 72 -1 2 2 7 7 10 10 7 114 217 112 227 0 4 4 10 9 13 11
7 56 102 54 114 -1 4 2 7 7 7 5 0 11 8 13 18 3 13 8 9 21 -15 10 -18 17 -36
16 -39 0 -4 3 -10 8 -13 7 -5 115 -215 118 -231 1 -3 27 -56 58 -117 56 -111
79 -134 92 -93 3 11 11 20 16 20 5 0 8 3 7 8 -2 11 43 106 54 113 5 3 10 9 9
12 0 12 42 102 51 108 5 3 10 9 9 12 0 12 42 102 51 108 5 3 10 9 9 12 0 4 11
31 24 61 22 51 45 80 45 57 0 -5 10 -31 22 -58 12 -26 21 -51 20 -55 -1 -5 2
-8 7 -8 5 0 17 -20 27 -45 9 -25 21 -45 25 -45 5 0 8 -3 7 -7 -2 -7 138 -299
149 -312 9 -11 27 23 30 56 9 102 16 138 24 118 4 -11 8 -44 8 -72 1 -29 5
-53 10 -53 4 0 8 -10 7 -22 -1 -21 3 -23 59 -24 66 -1 89 9 77 35 -5 9 -7 26
-6 39 0 12 -2 22 -6 22 -3 0 -6 20 -5 45 1 25 -1 45 -5 45 -4 0 -13 53 -20
118 -7 64 -15 121 -18 126 -3 5 -6 26 -7 45 -1 20 -3 37 -5 39 -1 1 -3 19 -5
40 -1 20 -5 45 -9 54 -8 18 5 243 14 243 1 0 3 18 4 41 2 22 5 45 8 50 3 5 12
64 19 132 7 67 16 122 19 122 4 0 6 15 5 33 -1 17 1 37 6 42 4 6 7 31 6 55
l-2 45 -65 0 c-62 0 -65 -1 -67 -25 -1 -14 -5 -36 -7 -50 -3 -14 -8 -47 -12
-75 l-8 -50 -8 55 c-5 30 -11 66 -13 80 -8 52 -12 64 -23 68 -7 2 -12 -3 -12
-11 0 -9 -7 -23 -16 -31 -8 -9 -13 -16 -11 -16 3 0 -23 -56 -58 -124 -35 -69
-60 -127 -57 -130 3 -3 0 -6 -6 -6 -5 0 -18 -20 -28 -45 -9 -25 -21 -45 -25
-45 -5 0 -8 -3 -7 -7 3 -15 -54 -128 -59 -116 -2 7 -4 15 -3 19 1 4 -2 10 -7
13 -4 3 -26 42 -48 86 -21 44 -44 83 -50 87 -5 4 -6 8 -2 8 4 0 -12 38 -37 84
-24 47 -42 87 -38 90 3 3 1 6 -5 6 -6 0 -14 11 -17 25 -4 14 -11 25 -17 25 -6
0 -8 4 -4 9 3 5 1 12 -5 16 -6 4 -8 11 -5 16 4 5 2 9 -4 9 -5 0 -13 9 -16 20
-10 32 -33 23 -57 -22 -12 -24 -23 -45 -23 -48 -3 -15 -121 -246 -128 -251 -5
-3 -9 -10 -8 -15 0 -12 -77 -166 -90 -178 -6 -6 -9 -4 -9 7 0 9 -5 17 -10 17
-6 0 -9 3 -8 8 3 9 -94 205 -105 213 -5 3 -9 10 -9 15 0 5 -30 69 -66 142 -49
100 -68 130 -77 122 -14 -11 -26 -80 -27 -149 -1 -73 -24 -25 -32 66 -3 42
-11 80 -17 84 -17 10 -118 8 -121 -3z m813 -345 c24 -49 47 -91 52 -94 5 -3 8
-9 7 -13 -2 -10 42 -100 53 -107 5 -3 8 -9 8 -12 0 -4 8 -27 19 -53 11 -25 20
-51 20 -58 0 -6 -22 -58 -50 -114 -27 -56 -50 -105 -49 -108 0 -4 -3 -10 -8
-13 -4 -3 -28 -45 -51 -94 -40 -79 -60 -104 -63 -77 -1 6 -2 13 -4 18 -3 10
-44 94 -55 112 -5 8 -38 75 -74 148 l-65 132 90 180 c49 99 89 183 89 188 0 5
7 15 15 22 8 7 12 16 9 21 -3 5 -1 9 5 9 5 0 29 -39 52 -87z m-531 -73 c6 -11
7 -20 3 -20 -4 0 -3 -4 2 -8 6 -4 35 -58 66 -120 l57 -113 -27 -52 c-14 -29
-30 -55 -34 -58 -5 -3 -8 -9 -8 -13 2 -11 -72 -156 -79 -156 -16 0 -44 366
-28 376 3 2 10 45 14 94 7 91 14 107 34 70z m987 -20 c5 -14 10 -57 16 -125 1
-16 5 -35 9 -41 12 -18 -8 -250 -27 -327 -7 -27 -10 -23 -52 62 -25 50 -44 93
-43 97 1 4 -3 10 -8 13 -5 3 -17 23 -26 44 l-15 38 67 139 c37 76 68 133 70
127 2 -7 6 -19 9 -27z"/>
</g>
</svg>
